<svg id="visual" viewBox="0 0 900 600" width="900" height="600" xmlns="http://www.w3.org/2000/svg" xmlns:xlink="http://www.w3.org/1999/xlink" version="1.1"><path d="M0 211L82 211L82 127L164 127L164 103L245 103L245 115L327 115L327 205L409 205L409 121L491 121L491 103L573 103L573 151L655 151L655 169L736 169L736 241L818 241L818 133L900 133L900 169L900 0L900 0L818 0L818 0L736 0L736 0L655 0L655 0L573 0L573 0L491 0L491 0L409 0L409 0L327 0L327 0L245 0L245 0L164 0L164 0L82 0L82 0L0 0Z" fill="#fa7268"></path><path d="M0 373L82 373L82 235L164 235L164 247L245 247L245 217L327 217L327 349L409 349L409 199L491 199L491 265L573 265L573 301L655 301L655 247L736 247L736 373L818 373L818 205L900 205L900 271L900 167L900 131L818 131L818 239L736 239L736 167L655 167L655 149L573 149L573 101L491 101L491 119L409 119L409 203L327 203L327 113L245 113L245 101L164 101L164 125L82 125L82 209L0 209Z" fill="#ea5e66"></path><path d="M0 439L82 439L82 301L164 301L164 337L245 337L245 325L327 325L327 463L409 463L409 307L491 307L491 349L573 349L573 355L655 355L655 307L736 307L736 439L818 439L818 301L900 301L900 325L900 269L900 203L818 203L818 371L736 371L736 245L655 245L655 299L573 299L573 263L491 263L491 197L409 197L409 347L327 347L327 215L245 215L245 245L164 245L164 233L82 233L82 371L0 371Z" fill="#d84a64"></path><path d="M0 523L82 523L82 529L164 529L164 535L245 535L245 541L327 541L327 547L409 547L409 505L491 505L491 565L573 565L573 565L655 565L655 547L736 547L736 565L818 565L818 559L900 559L900 553L900 323L900 299L818 299L818 437L736 437L736 305L655 305L655 353L573 353L573 347L491 347L491 305L409 305L409 461L327 461L327 323L245 323L245 335L164 335L164 299L82 299L82 437L0 437Z" fill="#c53762"></path><path d="M0 601L82 601L82 601L164 601L164 601L245 601L245 601L327 601L327 601L409 601L409 601L491 601L491 601L573 601L573 601L655 601L655 601L736 601L736 601L818 601L818 601L900 601L900 601L900 551L900 557L818 557L818 563L736 563L736 545L655 545L655 563L573 563L573 563L491 563L491 503L409 503L409 545L327 545L327 539L245 539L245 533L164 533L164 527L82 527L82 521L0 521Z" fill="#b0235f"></path></svg>